<svg xmlns="http://www.w3.org/2000/svg" width="1080" height="1080" viewBox="0 0 1080 1080"><defs><style>.cls-2{fill:#565153}</style></defs><path id="Capa_2" d="M-1.4 0h1082.81v1081.4H-1.4z" data-name="Capa 2" style="fill:#fff"/><g id="Capa_1" data-name="Capa 1"><path d="M871.77 362.85c-66.89 0-79.62 131.12-79.62 176.25s11.68 182.03 79.62 182.03 79.62-136.42 79.62-182.03-12.75-176.25-79.62-176.25" class="cls-2"/><path d="M-2.15 0v1082h1084.29V0zm210.91 729.11H104.77v-4.27c15.9-15.94 24.92-26.01 24.92-50.4l-.54-260.09-53.6 7.96v-7.96c35.04-15.94 67.95-33.44 98.18-59.46h7.99l1.07 319.55c0 24.39 11.15 34.46 25.97 50.4zm181.55 0c-104.01 0-132.69-100.32-132.69-186.87s32.37-187.36 132.69-187.36c106.7 0 132.73 98.72 132.73 187.36s-24.42 186.87-132.73 186.87m299.91 0H586.18v-4.27c15.95-15.94 24.96-26.01 24.96-50.4l-.54-260.09-53.6 7.96v-7.96c35.04-15.94 67.95-33.44 98.19-59.46h7.94l1.07 319.55c0 24.39 11.15 34.46 26.01 50.4v4.27Zm181.55 0c-104.05 0-132.69-100.32-132.69-186.87s32.37-187.36 132.69-187.36c106.67 0 132.69 98.72 132.69 187.36s-24.43 186.87-132.69 186.87" class="cls-2"/><path d="M390.31 362.85c-66.89 0-79.58 131.12-79.58 176.25s11.64 182.03 79.58 182.03 79.62-136.42 79.62-182.03-12.75-176.25-79.62-176.25" class="cls-2"/></g></svg>