<svg xmlns="http://www.w3.org/2000/svg" width="907" height="344" viewBox="0 0 906.56 343.57"><path d="M433.16 72.62c-37.02 0-44.05 72.59-44.05 97.56s6.44 100.76 44.05 100.76 44.08-75.52 44.08-100.76-7.06-97.56-44.08-97.56m0 0c-37.02 0-44.05 72.59-44.05 97.56s6.44 100.76 44.05 100.76 44.08-75.52 44.08-100.76-7.06-97.56-44.08-97.56M215.91 34.28V309.3h600.22V34.28zm116.76 241.09H275.1v-2.36c8.8-8.82 13.79-14.4 13.79-27.9l-.3-143.98-29.67 4.4v-4.4c19.39-8.82 37.61-18.51 54.35-32.91h4.42l.59 176.89c0 13.5 6.17 19.08 14.38 27.9v2.36Zm100.49 0c-57.57 0-73.45-55.53-73.45-103.44s17.92-103.71 73.45-103.71c59.07 0 73.47 54.65 73.47 103.71s-13.52 103.44-73.47 103.44m166.02 0h-57.6v-2.36c8.82-8.82 13.81-14.4 13.81-27.9l-.3-143.98-29.67 4.4v-4.4c19.4-8.82 37.61-18.51 54.35-32.91h4.4l.59 176.89c0 13.5 6.17 19.08 14.4 27.9v2.36Zm100.49 0c-57.59 0-73.45-55.53-73.45-103.44s17.92-103.71 73.45-103.71c59.05 0 73.45 54.65 73.45 103.71s-13.52 103.44-73.45 103.44m0-202.75c-37.02 0-44.08 72.59-44.08 97.56s6.47 100.76 44.08 100.76 44.08-75.52 44.08-100.76-7.06-97.56-44.08-97.56m-266.51 0c-37.02 0-44.05 72.59-44.05 97.56s6.44 100.76 44.05 100.76 44.08-75.52 44.08-100.76-7.06-97.56-44.08-97.56m0 0c-37.02 0-44.05 72.59-44.05 97.56s6.44 100.76 44.05 100.76 44.08-75.52 44.08-100.76-7.06-97.56-44.08-97.56m0 0c-37.02 0-44.05 72.59-44.05 97.56s6.44 100.76 44.05 100.76 44.08-75.52 44.08-100.76-7.06-97.56-44.08-97.56M175.92 270.44v23.48h-10.07v-19.98h-8.87v19.98h-9.94v-22.59h-8.85v31.78h46.57v-32.67h-8.85Zm7.49-30.17c-1.25-2.38-2.88-4.17-4.9-5.4-2.02-1.22-4.22-1.84-6.58-1.84s-4.13.32-5.67.95c-1.54.64-2.84 1.47-3.86 2.54a14.8 14.8 0 0 0-2.61 3.58c-.68 1.32-1.29 2.65-1.79 4.02-.54 1.47-1.16 2.9-1.84 4.26q-1.02 2.07-2.31 3.36c-.86.86-1.84 1.29-2.95 1.29-1.59 0-2.79-.57-3.58-1.7-.82-1.13-1.22-2.7-1.22-4.7 0-1.59.32-3.31.95-5.15.64-1.84 1.45-3.63 2.4-5.42l-7.01-3.47c-1.23 1.86-2.29 3.95-3.18 6.31-.88 2.34-1.32 5.38-1.32 9.14.11 2.86.75 5.4 1.93 7.6 1.16 2.18 2.72 3.88 4.7 5.08 2 1.2 4.33 1.81 7.03 1.81 2.25 0 4.13-.43 5.67-1.25s2.84-1.88 3.86-3.22c1.04-1.34 1.91-2.74 2.63-4.26.73-1.52 1.34-2.99 1.91-4.45.45-1.22 1-2.34 1.63-3.38.64-1.02 1.34-1.86 2.09-2.47.77-.61 1.61-.91 2.54-.91 1.34 0 2.4.36 3.15 1.11.77.73 1.29 1.66 1.61 2.77.32 1.13.48 2.22.48 3.33s-.16 2.29-.5 3.61a21 21 0 0 1-1.43 3.88c-.61 1.29-1.32 2.5-2.11 3.58l7.15 4.06c1.13-1.66 2.09-3.36 2.81-5.13.75-1.77 1.29-3.58 1.66-5.42.36-1.84.54-3.63.54-5.4 0-3.47-.64-6.37-1.88-8.73Zm-13.39-25.38v-6.58c0-3.04-.48-5.6-1.43-7.69s-2.2-3.77-3.77-5.01a14.7 14.7 0 0 0-5.22-2.72 20 20 0 0 0-5.72-.84c-3.22 0-5.99.68-8.33 2.09-2.34 1.38-4.15 3.4-5.44 6.08-1.29 2.65-1.93 5.9-1.93 9.73v14.11h46.57v-9.16h-14.74Zm-8.91 0h-14.06v-6.58c0-1.61.27-2.88.84-3.83.54-.95 1.23-1.66 2.02-2.13.79-.45 1.59-.77 2.36-.91.79-.16 1.41-.23 1.88-.23.59 0 1.29.11 2.09.34.79.25 1.57.64 2.31 1.16.73.52 1.34 1.25 1.84 2.18.48.93.73 2.09.73 3.47v6.53Zm14.54-49.38 9.12-3.58v-10.64l-48.41 21.01v.5l48.41 21.03v-9.05l-9.12-3.79-7.71-3.22-11.36-4.74 11.36-4.47 7.71-3.04Zm-7.71-.05v13.97l7.71 2.86v-20.08l-7.71 3.24Zm16.58-44.87c-.54-2-1.18-3.67-1.91-5.04-.7-1.38-1.27-2.31-1.7-2.81l-8.23 3.79c.88.93 1.75 2.29 2.54 4.06s1.2 3.9 1.2 6.37c0 2.16-.36 4.08-1.09 5.81-.7 1.7-1.72 3.18-3.06 4.4-1.34 1.23-2.93 2.16-4.79 2.81-1.84.66-3.9.98-6.12.98s-4.06-.36-5.85-1.07c-1.79-.73-3.38-1.7-4.72-2.95-1.36-1.25-2.4-2.68-3.13-4.31-.75-1.61-1.11-3.31-1.11-5.08q0-3.435 1.29-6.06c.86-1.75 1.7-3.15 2.5-4.2l-8.66-3.61c-.98 1.5-1.88 3.47-2.72 5.88-.84 2.4-1.27 5.17-1.27 8.28 0 3.38.59 6.46 1.79 9.26 1.18 2.79 2.84 5.17 4.99 7.17 2.15 2.02 4.7 3.56 7.67 4.63 2.95 1.09 6.19 1.61 9.73 1.61 3.18 0 6.15-.52 8.94-1.57 2.77-1.07 5.24-2.59 7.4-4.6 2.15-2 3.86-4.45 5.1-7.33 1.25-2.9 1.91-6.17 2-9.84.02-2.4-.23-4.6-.77-6.58Zm-46.32-26.2v9.16h46.57v-9.16zm45.25-42.1q-1.845-4.29-5.1-7.62c-2.18-2.22-4.7-3.95-7.55-5.19-2.88-1.25-5.97-1.86-9.26-1.86s-6.24.61-9.12 1.86c-2.86 1.25-5.4 2.97-7.62 5.19-2.2 2.22-3.95 4.76-5.22 7.62-1.27 2.88-1.91 5.94-1.91 9.19s.64 6.37 1.91 9.23c1.27 2.88 3.02 5.4 5.22 7.55q3.33 3.27 7.62 5.1c2.88 1.22 5.92 1.84 9.12 1.84s6.37-.61 9.26-1.84c2.86-1.23 5.38-2.93 7.55-5.1 2.18-2.16 3.88-4.67 5.1-7.55 1.23-2.86 1.84-5.94 1.84-9.23s-.61-6.31-1.84-9.19m-8.16 14.59c-.77 1.77-1.84 3.29-3.2 4.63a15 15 0 0 1-4.74 3.11c-1.79.73-3.74 1.11-5.81 1.11s-4.06-.36-5.87-1.09c-1.81-.7-3.4-1.72-4.79-3.04a14 14 0 0 1-3.2-4.56c-.75-1.72-1.13-3.61-1.13-5.63s.39-3.9 1.13-5.63c.77-1.75 1.84-3.24 3.2-4.54 1.38-1.29 2.97-2.29 4.79-3.04 1.81-.73 3.77-1.11 5.87-1.11s4.02.36 5.81 1.09c1.79.7 3.36 1.7 4.74 2.97 1.36 1.27 2.43 2.74 3.2 4.47.75 1.7 1.13 3.54 1.13 5.53s-.39 3.97-1.13 5.72Z" style="fill:#565153"/><path d="M-39.76 164.45h275.03v14.66H-39.76z" style="fill:#9e4e42" transform="rotate(-90 97.755 171.785)"/></svg>